<?xml version="1.0" encoding="UTF-8"?>
<svg id="Layer_2" data-name="Layer 2" xmlns="http://www.w3.org/2000/svg" viewBox="0 0 731.18 256.71">
  <defs>
    <style>
      .cls-1 {
        fill: #f0e3d2;
      }
    </style>
  </defs>
  <g id="Layer_1-2" data-name="Layer 1">
    <g>
      <g>
        <path class="cls-1" d="M109.71,50.57c62.57,0,109.71,42.43,109.71,102.85s-50.15,103.29-109.71,103.29S0,213.85,0,153.42,47.14,50.57,109.71,50.57ZM109.71,113.99c-22.28,0-39.85,16.71-39.85,39.43s18.43,40.29,39.85,40.29,39.43-16.72,39.43-40.29-17.14-39.43-39.43-39.43Z"/>
        <path class="cls-1" d="M311.24,53.99h48v54.86h-48v69.42c0,12,6.44,18.01,18,18.01,8.15,0,17.14-3.43,24.43-6.86l12.85,55.71c-17.14,6.43-36.86,11.14-55.29,11.14-45.43,0-70.29-27.43-70.29-71.99v-75.43h-22.28v-54.85h22.28c11.58-16.72,24.01-36.86,35.57-54h34.71v53.99Z"/>
        <path class="cls-1" d="M458.54,53.99h48v54.86h-48v69.42c0,12,6.44,18.01,18,18.01,8.15,0,17.14-3.43,24.43-6.86l12.85,55.71c-17.14,6.43-36.86,11.14-55.29,11.14-45.43,0-70.29-27.43-70.29-71.99v-75.43h-22.28v-54.85h22.28c11.58-16.72,24.01-36.86,35.58-54h34.71v53.99Z"/>
        <path class="cls-1" d="M621.46,50.57c62.58,0,109.71,42.43,109.71,102.85s-50.15,103.29-109.71,103.29-109.71-42.86-109.71-103.29,47.14-102.85,109.71-102.85ZM621.46,113.99c-22.28,0-39.85,16.71-39.85,39.43s18.43,40.29,39.85,40.29,39.43-16.72,39.43-40.29-17.14-39.43-39.43-39.43Z"/>
      </g>
      <path class="cls-1" d="M708.38,11.34c12.54,0,22.8,10.25,22.8,22.8,0,12.67-10.25,22.92-22.8,22.92s-22.92-10.25-22.92-22.92,10.25-22.8,22.92-22.8ZM708.38,16.29c-10.01,0-18.09,7.96-18.09,17.85s8.32,17.97,18.09,17.97,17.85-7.96,17.85-17.97-8.08-17.85-17.85-17.85ZM698.25,22.08h11.22c5.31,0,9.29,3.38,9.29,8.57,0,3.38-1.57,5.79-3.98,7.36l4.7,8.2h-7.11l-3.86-6.75h-3.26v6.75h-7v-24.13ZM705.24,28.11v5.31h3.74c1.57,0,2.89-1.33,2.89-2.77s-1.33-2.53-2.89-2.53h-3.74Z"/>
    </g>
  </g>
</svg>